<?xml version="1.0" encoding="UTF-8"?><svg id="Layer_1" xmlns="http://www.w3.org/2000/svg" viewBox="0 0 641.98 57.64"><defs><style>.cls-1{fill:#1d1d1b;stroke-width:0px;}</style></defs><path class="cls-1" d="m33.62,1.31h-6.81L0,56.32h8.47l.35-.89c3.7-9.37,8.83-15.26,15.26-17.48.3-.1.6-.2.91-.29.91-.25,2.77-.65,5.13-.65h.05c1.78,0,3.53.23,5.19.68.52.14,1.03.31,1.52.49,7.84,2.95,12.21,10.99,14.49,17.21l.34.92h8.64L33.62,1.31Zm6.76,31.04c-2.75-1.04-6.22-1.87-10.27-1.87s-7.52.83-10.27,1.87l10.27-21.28,10.27,21.28Z"/><polygon class="cls-1" points="641.98 49.2 641.98 56.32 597.56 56.32 597.56 1.31 640.88 1.31 640.88 8.45 605.28 8.45 605.28 24.42 639.12 24.42 639.12 31.54 605.28 31.54 605.28 49.2 641.98 49.2"/><polygon class="cls-1" points="140.78 1.31 140.78 56.32 133.22 56.32 133.22 15.44 112.62 56.32 106.72 56.32 86.18 15.84 86.18 56.32 78.62 56.32 78.62 1.31 86.95 1.31 109.78 46.61 132.66 1.31 140.78 1.31"/><rect class="cls-1" x="165.38" y="1.31" width="7.71" height="55.01"/><polygon class="cls-1" points="242.17 49.2 242.17 56.32 197.76 56.32 197.76 1.31 241.07 1.31 241.07 8.45 205.47 8.45 205.47 24.42 239.32 24.42 239.32 31.54 205.47 31.54 205.47 49.2 242.17 49.2"/><path class="cls-1" d="m298.8,32.38c3.21-1.05,5.73-2.71,7.47-4.93,2.04-2.6,3.07-5.91,3.07-9.81,0-5.25-1.8-9.35-5.35-12.18-3.46-2.75-8.66-4.14-15.42-4.14h-25.38v55.01h7.63v-22.36h19.25c.33,0,.65-.01.98-.04l12.87,22.4h8.81l-13.93-23.94Zm-10.82-5.56h-17.17V8.45h17.39c4.74,0,8.19.79,10.26,2.36,1.99,1.47,2.95,3.68,2.95,6.76,0,3.98-1.39,9.27-13.43,9.27Z"/><polygon class="cls-1" points="409.06 1.31 409.06 56.32 401.42 56.32 401.42 31.54 366.73 31.54 366.73 56.32 359.01 56.32 359.01 1.31 366.73 1.31 366.73 24.2 401.42 24.2 401.42 1.31 409.06 1.31"/><polygon class="cls-1" points="572.98 1.31 572.98 56.32 565.41 56.32 565.41 15.44 544.8 56.32 538.9 56.32 518.36 15.84 518.36 56.32 510.8 56.32 510.8 1.31 519.14 1.31 541.96 46.61 564.85 1.31 572.98 1.31"/><path class="cls-1" d="m459.84,0c-15.89,0-28.82,12.93-28.82,28.82s12.93,28.82,28.82,28.82,28.82-12.93,28.82-28.82S475.73,0,459.84,0Zm0,50.14c-11.75,0-21.32-9.57-21.32-21.32s9.57-21.32,21.32-21.32,21.32,9.57,21.32,21.32-9.57,21.32-21.32,21.32Z"/></svg>